<svg viewBox="0 0 1024 1024" version="1.1" xmlns="http://www.w3.org/2000/svg" xmlns:xlink="http://www.w3.org/1999/xlink" xml:space="preserve" xmlns:serif="http://www.serif.com/" style="fill-rule:evenodd;clip-rule:evenodd;stroke-linejoin:round;stroke-miterlimit:2;"><g><path d="M38.906,373.936l463.408,463.409c-44.719,-11.939 -86.951,-35.471 -122,-70.519l-334.932,-334.933l-6.476,-57.957Z" style="fill:url(#_Linear1);"/><path d="M779.221,753.48l-753.48,-753.48l57.957,6.476l717.866,717.866l-7.552,10.841c-2.813,3.632 -5.625,7.264 -8.437,10.897l-6.354,7.4Z" style="fill:url(#_Linear2);"/><path d="M654.416,834.6l-634.988,-634.988l-6.476,-57.957l678.488,678.488c-12.035,5.756 -24.405,10.58 -37.024,14.457Z" style="fill:url(#_Linear3);"/><path d="M844.102,612.035l-586.08,-586.081l57.957,6.476l530.591,530.591c0.637,16.364 -0.187,32.772 -2.468,49.014Z" style="fill:url(#_Linear4);"/><path d="M563.021,846.57l-530.591,-530.591l-6.476,-57.957l586.081,586.08c-16.241,2.298 -32.649,3.134 -49.014,2.468Z" style="fill:url(#_Linear5);"/><path d="M820.143,691.44l-678.488,-678.488l57.957,6.476l634.988,634.988c-3.871,12.611 -8.678,24.992 -14.457,37.024Z" style="fill:url(#_Linear6);"/><path d="M724.342,801.564l-717.866,-717.866l-6.476,-57.957l753.48,753.48l-7.4,6.354c-3.633,2.812 -7.265,5.624 -10.897,8.437l-10.841,7.552Z" style="fill:url(#_Linear7);"/><path d="M373.936,38.906l57.957,6.476l334.933,334.932c35.048,35.049 58.58,77.281 70.519,122l-463.409,-463.408Z" style="fill:url(#_Linear8);"/></g><path d="M979.688,768.407c-72.716,151.148 -227.364,255.593 -406.215,255.593c-248.645,-0 -450.513,-201.868 -450.513,-450.513c0,-248.645 201.868,-450.513 450.513,-450.513c178.851,-0 333.499,104.445 406.215,255.593l-104.427,52.213c-53.547,-112.923 -168.612,-191.084 -301.788,-191.084c-184.224,-0 -333.791,149.566 -333.791,333.791c0,184.224 149.567,333.791 333.791,333.791c133.176,0 248.241,-78.161 301.788,-191.085l104.427,52.214Z" style="fill:#26cea8;"/><defs><linearGradient id="_Linear1" x1="0" y1="0" x2="1" y2="0" gradientUnits="userSpaceOnUse" gradientTransform="matrix(768.352,767.853,-767.853,768.352,1.13687e-13,-3.41061e-13)"><stop offset="0" style="stop-color:#8b00ff;stop-opacity:1"/><stop offset="0.48" style="stop-color:#8c00ff;stop-opacity:1"/><stop offset="1" style="stop-color:#00bfff;stop-opacity:1"/></linearGradient><linearGradient id="_Linear2" x1="0" y1="0" x2="1" y2="0" gradientUnits="userSpaceOnUse" gradientTransform="matrix(768.352,767.853,-767.853,768.352,1.7053e-13,-1.7053e-13)"><stop offset="0" style="stop-color:#8b00ff;stop-opacity:1"/><stop offset="0.48" style="stop-color:#8c00ff;stop-opacity:1"/><stop offset="1" style="stop-color:#00bfff;stop-opacity:1"/></linearGradient><linearGradient id="_Linear3" x1="0" y1="0" x2="1" y2="0" gradientUnits="userSpaceOnUse" gradientTransform="matrix(768.352,767.853,-767.853,768.352,5.68434e-14,5.68434e-14)"><stop offset="0" style="stop-color:#8b00ff;stop-opacity:1"/><stop offset="0.48" style="stop-color:#8c00ff;stop-opacity:1"/><stop offset="1" style="stop-color:#00bfff;stop-opacity:1"/></linearGradient><linearGradient id="_Linear4" x1="0" y1="0" x2="1" y2="0" gradientUnits="userSpaceOnUse" gradientTransform="matrix(768.352,767.853,-767.853,768.352,1.13687e-13,-1.13687e-13)"><stop offset="0" style="stop-color:#8b00ff;stop-opacity:1"/><stop offset="0.48" style="stop-color:#8c00ff;stop-opacity:1"/><stop offset="1" style="stop-color:#00bfff;stop-opacity:1"/></linearGradient><linearGradient id="_Linear5" x1="0" y1="0" x2="1" y2="0" gradientUnits="userSpaceOnUse" gradientTransform="matrix(768.352,767.853,-767.853,768.352,1.13687e-13,-3.41061e-13)"><stop offset="0" style="stop-color:#8b00ff;stop-opacity:1"/><stop offset="0.48" style="stop-color:#8c00ff;stop-opacity:1"/><stop offset="1" style="stop-color:#00bfff;stop-opacity:1"/></linearGradient><linearGradient id="_Linear6" x1="0" y1="0" x2="1" y2="0" gradientUnits="userSpaceOnUse" gradientTransform="matrix(768.352,767.853,-767.853,768.352,1.13687e-13,-1.13687e-13)"><stop offset="0" style="stop-color:#8b00ff;stop-opacity:1"/><stop offset="0.48" style="stop-color:#8c00ff;stop-opacity:1"/><stop offset="1" style="stop-color:#00bfff;stop-opacity:1"/></linearGradient><linearGradient id="_Linear7" x1="0" y1="0" x2="1" y2="0" gradientUnits="userSpaceOnUse" gradientTransform="matrix(768.352,767.853,-767.853,768.352,1.13687e-13,-2.27374e-13)"><stop offset="0" style="stop-color:#8b00ff;stop-opacity:1"/><stop offset="0.48" style="stop-color:#8c00ff;stop-opacity:1"/><stop offset="1" style="stop-color:#00bfff;stop-opacity:1"/></linearGradient><linearGradient id="_Linear8" x1="0" y1="0" x2="1" y2="0" gradientUnits="userSpaceOnUse" gradientTransform="matrix(768.352,767.853,-767.853,768.352,1.13687e-13,-1.13687e-13)"><stop offset="0" style="stop-color:#8b00ff;stop-opacity:1"/><stop offset="0.48" style="stop-color:#8c00ff;stop-opacity:1"/><stop offset="1" style="stop-color:#00bfff;stop-opacity:1"/></linearGradient></defs></svg>